<svg width="880" height="260" viewBox="0 0 880 260" xmlns="http://www.w3.org/2000/svg" role="img">
<title>achievements card</title>
<defs>
<clipPath id="aframe"><rect x="0" y="0" width="880" height="260" rx="12" ry="12"/></clipPath>
<pattern id="ascan" width="4" height="4" patternUnits="userSpaceOnUse">
<rect width="4" height="1" fill="#00FF41" opacity="0.05"/>
</pattern>
</defs>
<g clip-path="url(#aframe)">
<rect x="0" y="0" width="880" height="260" fill="#0d1117"/>
<rect x="0" y="0" width="880" height="34" fill="#161b22"/>
<circle cx="22" cy="17" r="6" fill="#ff5f56"/>
<circle cx="44" cy="17" r="6" fill="#ffbd2e"/>
<circle cx="66" cy="17" r="6" fill="#27c93f"/>
<text x="440" y="21" text-anchor="middle" font-family="'SFMono-Regular',Consolas,monospace" font-size="13" fill="#8b949e">chitransh@github: ~/achievements</text>
<rect x="0" y="34" width="880" height="226" fill="url(#ascan)"/>

<!-- row 1: copyright -->
<rect x="30" y="56" width="20" height="20" rx="3" fill="none" stroke="#00FF41" stroke-width="1.4"/>
<text x="40" y="71" text-anchor="middle" font-family="'SFMono-Regular',Consolas,monospace" font-size="12" fill="#00FF41">©</text>
<text x="64" y="70" font-family="'SFMono-Regular',Consolas,monospace" font-size="13" fill="#c9d1d9">Registered Copyright — Biometric wristband auth system</text>
<text x="64" y="88" font-family="'SFMono-Regular',Consolas,monospace" font-size="12" fill="#6e7681">Application No. LD-20260190722 · ROC SmartPresence</text>

<line x1="30" y1="104" x2="850" y2="104" stroke="#30363d" stroke-width="1"/>

<!-- row 2: IEEE paper -->
<rect x="30" y="116" width="20" height="20" rx="3" fill="none" stroke="#00FF41" stroke-width="1.4"/>
<text x="40" y="131" text-anchor="middle" font-family="'SFMono-Regular',Consolas,monospace" font-size="11" fill="#00FF41">IEEE</text>
<text x="64" y="130" font-family="'SFMono-Regular',Consolas,monospace" font-size="13" fill="#c9d1d9">Co-Author — FARM: KNN-based ransomware detection via memory forensics</text>
<text x="64" y="148" font-family="'SFMono-Regular',Consolas,monospace" font-size="12" fill="#6e7681">Status: in preparation for submission</text>

<line x1="30" y1="164" x2="850" y2="164" stroke="#30363d" stroke-width="1"/>

<!-- row 3: HackerOne -->
<rect x="30" y="176" width="20" height="20" rx="3" fill="none" stroke="#00FF41" stroke-width="1.4"/>
<text x="40" y="191" text-anchor="middle" font-family="'SFMono-Regular',Consolas,monospace" font-size="12" fill="#00FF41">H1</text>
<text x="64" y="190" font-family="'SFMono-Regular',Consolas,monospace" font-size="13" fill="#c9d1d9">Active Bug Bounty Hunter — HackerOne (Eternal program)</text>
<text x="64" y="208" font-family="'SFMono-Regular',Consolas,monospace" font-size="12" fill="#6e7681">Handle: optimus_98 · Zomato / Blinkit / Hyperpure / District</text>

<line x1="30" y1="224" x2="850" y2="224" stroke="#30363d" stroke-width="1"/>

<!-- row 4: TryHackMe -->
<rect x="30" y="236" width="20" height="20" rx="3" fill="none" stroke="#00FF41" stroke-width="1.4" opacity="0"/>
<text x="64" y="250" font-family="'SFMono-Regular',Consolas,monospace" font-size="12" fill="#6e7681">TryHackMe · Top 1% · PicoCTF participant — see badges below</text>
</g>
</svg>
